<?xml version="1.0" encoding="utf-8"?>
<!-- Generator: Adobe Illustrator 19.0.1, SVG Export Plug-In . SVG Version: 6.00 Build 0)  -->
<svg version="1.1" id="Layer_1" xmlns="http://www.w3.org/2000/svg" xmlns:xlink="http://www.w3.org/1999/xlink" x="0px" y="0px"
	 viewBox="0 0 826.2 941" style="enable-background:new 0 0 826.2 941;" xml:space="preserve">
<style type="text/css">
	.st0{fill:none;stroke:#000000;stroke-miterlimit:10;}
	.st1{fill:#FFFFFF;stroke:#000000;stroke-miterlimit:10;}
	.st2{font-family:'MyriadPro-Regular';}
	.st3{font-size:12px;}
	.st4{font-size:18px;}
	.st5{font-size:9px;}
	.st6{fill:none;stroke:#000000;stroke-miterlimit:10;stroke-dasharray:11.7931,11.7931;}
	.st7{fill:none;stroke:#000000;stroke-miterlimit:10;stroke-dasharray:11.4667,11.4667;}
	.st8{fill:none;stroke:#000000;stroke-miterlimit:10;stroke-dasharray:11.9829,11.9829;}
	.st9{fill:none;stroke:#000000;stroke-miterlimit:10;stroke-dasharray:12.3636,12.3636;}
	.st10{fill:none;stroke:#000000;stroke-miterlimit:10;stroke-dasharray:12,12;}
</style>
<line class="st0" x1="292.3" y1="788.2" x2="479" y2="788.2"/>
<path class="st1" d="M414.8,188.3c3.9,5.2-15.2,13.2-34,13.2s-37.8-8.8-34-13.2"/>
<path class="st1" d="M414.8,211c0,7.3-15.2,13.2-34,13.2s-34-5.9-34-13.2"/>
<path class="st0" d="M414.8,220.8c0,7.3-15.2,13.2-34,13.2s-34-5.9-34-13.2"/>
<path class="st0" d="M414.8,236c5,4-14.3,12.6-34,12.6s-39.5-9.2-34-12.4"/>
<ellipse class="st1" cx="380.8" cy="74.6" rx="34" ry="13.2"/>
<line class="st0" x1="414.8" y1="74.6" x2="414.8" y2="191.3"/>
<line class="st0" x1="346.8" y1="77.3" x2="346.8" y2="191.4"/>
<line class="st0" x1="346.8" y1="190.9" x2="346.8" y2="211"/>
<line class="st0" x1="414.8" y1="191.3" x2="414.8" y2="211"/>
<line class="st0" x1="346.8" y1="220.8" x2="346.8" y2="239.4"/>
<line class="st0" x1="414.8" y1="222.3" x2="414.8" y2="239.4"/>
<line class="st0" x1="346.8" y1="211" x2="346.8" y2="222.3"/>
<line class="st0" x1="414.8" y1="211" x2="414.8" y2="222.3"/>
<text transform="matrix(1 0 0 1 447.4918 188.2966)"><tspan x="0" y="0" class="st2 st3">Metal surfaces</tspan><tspan x="0" y="14.4" class="st2 st3">form touch sensor</tspan><tspan x="0" y="28.8" class="st2 st3">when touched</tspan><tspan x="0" y="43.2" class="st2 st3">simultaneously</tspan></text>
<text transform="matrix(1 0 0 1 254.7168 191.3628)"><tspan x="0" y="0" class="st2 st3">Controller,</tspan><tspan x="14.1" y="14.4" class="st2 st3">battery,</tspan><tspan x="-19.9" y="28.8" class="st2 st3">&amp; LED housing</tspan></text>
<text transform="matrix(1 0 0 1 303.084 134.3212)"><tspan x="0" y="0" class="st2 st3">Sanded</tspan><tspan x="-6.2" y="14.4" class="st2 st3">plexiglas</tspan><tspan x="14.5" y="28.8" class="st2 st3">tube</tspan></text>
<text transform="matrix(1 0 0 1 414.8253 265.3627)"><tspan x="0" y="0" class="st2 st3">Clear plexi spacer</tspan><tspan x="0" y="14.4" class="st2 st3">separates</tspan><tspan x="0" y="28.8" class="st2 st3">electrodes of sensor</tspan></text>
<text transform="matrix(1 0 0 1 284.8843 257.0048)"><tspan x="0" y="0" class="st2 st3">Switch </tspan><tspan x="-4.7" y="14.4" class="st2 st3">housing</tspan></text>
<text transform="matrix(1 0 0 1 323.4138 472.9865)"><tspan x="0" y="0" class="st2 st3">ESP8266</tspan><tspan x="-17.3" y="14.4" class="st2 st3">microcontroller</tspan><tspan x="7.6" y="28.8" class="st2 st3">+ wifi</tspan></text>
<text transform="matrix(1 0 0 1 671.0381 469.3206)"><tspan x="0" y="0" class="st2 st3">UDP server</tspan><tspan x="6" y="14.4" class="st2 st3">(node.js)</tspan><tspan x="3.2" y="28.8" class="st2 st3">on laptop</tspan></text>
<text transform="matrix(1 0 0 1 175.3687 391.2365)" class="st2 st3">Candle (qty. 30)</text>
<text transform="matrix(1 0 0 1 70.84 38.3748)" class="st2 st4">Candle Block Diagram</text>
<text transform="matrix(1 0 0 1 68.6436 357.2365)" class="st2 st4">System Diagram</text>
<text transform="matrix(1 0 0 1 250.6172 712.2362)" class="st2 st3">Garcden string light (qty. 6)</text>
<text transform="matrix(1 0 0 1 250.2295 467.2365)" class="st2 st5">digital I/O</text>
<text transform="matrix(1 0 0 1 413.0127 460.4865)"><tspan x="0" y="0" class="st2 st5">Synchronous</tspan><tspan x="0.9" y="10.8" class="st2 st5">serial comm.</tspan></text>
<text transform="matrix(1 0 0 1 449.2305 656.2552)" class="st2 st5">UDP</text>
<text transform="matrix(1 0 0 1 674.2387 656.2548)" class="st2 st5">UDP</text>
<text transform="matrix(1 0 0 1 561.603 689.6682)" class="st2 st5">UDP</text>
<text transform="matrix(1 0 0 1 420.2293 786.1532)"><tspan x="0" y="0" class="st2 st5">Synchronous</tspan><tspan x="0.9" y="10.8" class="st2 st5">serial comm.</tspan></text>
<text transform="matrix(1 0 0 1 192.023 520.9865)"><tspan x="0" y="0" class="st2 st5">must be </tspan><tspan x="-2.5" y="10.8" class="st2 st5">grounded</tspan></text>
<text transform="matrix(1 0 0 1 472.3825 505.4865)"><tspan x="0" y="0" class="st2 st3">RGB LEDs</tspan><tspan x="-3.2" y="14.4" class="st2 st3">(WS2812B)</tspan></text>
<text transform="matrix(1 0 0 1 300.9507 758.1535)"><tspan x="0" y="0" class="st2 st3">50 RGB LEDs</tspan><tspan x="4.2" y="14.4" class="st2 st3">(WS2812B)</tspan></text>
<text transform="matrix(1 0 0 1 179.6138 440.4786)"><tspan x="0" y="0" class="st2 st3">Capacitive touch</tspan><tspan x="25.6" y="14.4" class="st2 st3">sensor</tspan></text>
<g>
	<g>
		<line class="st0" x1="444" y1="186.5" x2="421.1" y2="199.8"/>
		<g>
			<polygon points="415,203.3 421.6,194.8 421.6,199.5 425.6,201.8 			"/>
		</g>
	</g>
</g>
<g>
	<g>
		<line class="st0" x1="311.3" y1="198.1" x2="340.1" y2="207.8"/>
		<g>
			<polygon points="346.8,210.1 336.1,210.8 339.6,207.7 338.7,203.1 			"/>
		</g>
	</g>
</g>
<g>
	<g>
		<line class="st0" x1="323.3" y1="257" x2="341.7" y2="239.3"/>
		<g>
			<polygon points="346.8,234.4 342.5,244.2 341.4,239.6 336.8,238.3 			"/>
		</g>
	</g>
</g>
<g>
	<g>
		<line class="st0" x1="445.3" y1="190.9" x2="419.3" y2="222.9"/>
		<g>
			<polygon points="414.8,228.4 418,218.1 419.6,222.5 424.3,223.2 			"/>
		</g>
	</g>
</g>
<g>
	<g>
		<line class="st0" x1="414.8" y1="275.6" x2="384.9" y2="233.2"/>
		<g>
			<polygon points="380.8,227.4 389.9,233.2 385.2,233.6 383.2,237.9 			"/>
		</g>
	</g>
</g>
<path class="st0" d="M383.2,148c0,8.1,20.3,40.8-2.4,38.3c-23.3-2.6-2.1-36.6-0.1-48.8C381.5,141,382.4,144.5,383.2,148z"/>
<rect x="301.4" y="428.5" class="st0" width="86.9" height="106.1"/>
<ellipse class="st0" cx="208.2" cy="483" rx="25.5" ry="11.8"/>
<ellipse class="st1" cx="208.2" cy="471.2" rx="25.5" ry="11.8"/>
<line class="st0" x1="388.3" y1="464" x2="489.4" y2="464"/>
<g>
	<circle class="st0" cx="496.2" cy="464" r="6.8"/>
	<circle class="st0" cx="488.6" cy="479.7" r="6.8"/>
	<circle class="st0" cx="507.7" cy="479.7" r="6.8"/>
	<line class="st0" x1="488.6" y1="473" x2="492" y2="469.3"/>
	<line class="st0" x1="495.3" y1="479.7" x2="500.9" y2="479.7"/>
</g>
<circle class="st1" cx="384.8" cy="788.2" r="6.8"/>
<circle class="st1" cx="404.6" cy="788.2" r="6.8"/>
<circle class="st1" cx="365" cy="788.2" r="6.8"/>
<circle class="st1" cx="345.2" cy="788.2" r="6.8"/>
<circle class="st1" cx="325.4" cy="788.2" r="6.8"/>
<circle class="st1" cx="305.6" cy="788.2" r="6.8"/>
<circle class="st1" cx="285.8" cy="788.2" r="6.8"/>
<line class="st0" x1="233.7" y1="471.2" x2="301.4" y2="471.2"/>
<text transform="matrix(1 0 0 1 512.5176 789.9866)"><tspan x="0" y="0" class="st2 st3">Yún</tspan><tspan x="-28.8" y="14.4" class="st2 st3">microcontroller</tspan><tspan x="-3.9" y="28.8" class="st2 st3">+ wifi</tspan></text>
<rect x="479" y="745.5" class="st0" width="86.9" height="106.1"/>
<line class="st0" x1="208.2" y1="494.7" x2="208.2" y2="505.5"/>
<line class="st0" x1="202.1" y1="505.5" x2="214.4" y2="505.5"/>
<line class="st0" x1="204.1" y1="508.2" x2="212.4" y2="508.2"/>
<line class="st0" x1="206.4" y1="510.8" x2="210.1" y2="510.8"/>
<line class="st0" x1="344.8" y1="534.6" x2="344.8" y2="545.3"/>
<line class="st0" x1="338.7" y1="545.3" x2="351" y2="545.3"/>
<line class="st0" x1="340.7" y1="548" x2="349" y2="548"/>
<line class="st0" x1="343" y1="550.7" x2="346.7" y2="550.7"/>
<rect x="641.2" y="428.5" class="st0" width="110.5" height="105.3"/>
<g>
	<line class="st0" x1="514.4" y1="635.3" x2="514.4" y2="654.4"/>
	<g>
		<path class="st0" d="M550.3,630.2c1.4-0.8,5.3-1.3,8.8-1.3h30.3"/>
		<path class="st0" d="M634.2,652.6c0,2.3,2.6,3.6-9.1,3.6H523.5c-4.9,0.4-9.1-0.5-9.1-1.8"/>
		<path class="st1" d="M625.1,638.9H523.5c-11.7,0-11.5-5.3-2.7-10l29.5-16c1.4-0.8,5.3-1.3,8.8-1.3h30.3c3.5,0,7.4,0.6,8.8,1.3
			l29.5,16C636.7,633.7,636.8,638.9,625.1,638.9z"/>
		<line class="st0" x1="634.2" y1="635.3" x2="634.2" y2="652.6"/>
	</g>
	<text transform="matrix(1 0 0 1 563.5164 621.4868)"><tspan x="0" y="0" class="st2 st3">WiFi</tspan><tspan x="-4.7" y="14.4" class="st2 st3">router</tspan></text>
</g>
<g>
	<g>
		<polyline class="st0" points="529.4,576.5 529.4,582.5 523.4,582.5 		"/>
		<line class="st6" x1="511.6" y1="582.5" x2="187.3" y2="582.5"/>
		<polyline class="st0" points="181.4,582.5 175.4,582.5 175.4,576.5 		"/>
		<line class="st7" x1="175.4" y1="565" x2="175.4" y2="410.2"/>
		<polyline class="st0" points="175.4,404.5 175.4,398.5 181.4,398.5 		"/>
		<line class="st6" x1="193.2" y1="398.5" x2="517.5" y2="398.5"/>
		<polyline class="st0" points="523.4,398.5 529.4,398.5 529.4,404.5 		"/>
		<line class="st7" x1="529.4" y1="416" x2="529.4" y2="570.8"/>
	</g>
</g>
<g>
	<g>
		<polyline class="st0" points="583,865.1 583,871.1 577,871.1 		"/>
		<line class="st8" x1="565" y1="871.1" x2="259.4" y2="871.1"/>
		<polyline class="st0" points="253.4,871.1 247.4,871.1 247.4,865.1 		"/>
		<line class="st9" x1="247.4" y1="852.7" x2="247.4" y2="735.3"/>
		<polyline class="st0" points="247.4,729.1 247.4,723.1 253.4,723.1 		"/>
		<line class="st8" x1="265.4" y1="723.1" x2="571" y2="723.1"/>
		<polyline class="st0" points="577,723.1 583,723.1 583,729.1 		"/>
		<line class="st9" x1="583" y1="741.4" x2="583" y2="858.9"/>
	</g>
</g>
<g>
	<g>
		<line class="st10" x1="507.4" y1="643.9" x2="438.8" y2="643.9"/>
		<g>
			<polygon points="514.4,643.9 504.5,639.9 506.8,643.9 504.5,648 			"/>
		</g>
	</g>
</g>
<g>
	<g>
		<line class="st10" x1="556.9" y1="656.3" x2="556.9" y2="717"/>
		<g>
			<path d="M556.9,723.1c-1.1-2.8-2.9-6.4-4.8-8.5l4.8,1.7l4.8-1.7C559.8,716.7,558,720.2,556.9,723.1z"/>
		</g>
	</g>
</g>
<g>
	<g>
		<line class="st10" x1="438.8" y1="643.9" x2="438.8" y2="590.6"/>
		<g>
			<path d="M438.8,592.4l-3.6,2.2l-0.1-0.1l2.3-5.9c0.5-2,0.9-4.1,1.4-6.1c0.5,2,0.9,4.1,1.4,6.1l2.3,5.9l-0.1,0.1L438.8,592.4z"/>
		</g>
	</g>
</g>
<g>
	<g>
		<line class="st10" x1="642.4" y1="644.8" x2="696.4" y2="644.8"/>
		<g>
			<path d="M644.2,644.8l2.2-3.6l-0.1-0.1l-5.9,2.3c-2,0.5-4.1,0.9-6.1,1.4c2,0.5,4.1,0.9,6.1,1.4l5.9,2.3l0.1-0.1L644.2,644.8z"/>
		</g>
	</g>
</g>
<g>
	<g>
		<line class="st10" x1="696.4" y1="644.8" x2="696.4" y2="541.7"/>
		<g>
			<polygon points="696.4,534.6 700.5,544.5 696.4,542.2 692.4,544.5 			"/>
		</g>
	</g>
</g>
</svg>
